<?xml version="1.0" standalone="no"?>
<!DOCTYPE svg PUBLIC "-//W3C//DTD SVG 20010904//EN"
 "http://www.w3.org/TR/2001/REC-SVG-20010904/DTD/svg10.dtd">
<svg version="1.0" xmlns="http://www.w3.org/2000/svg"
 width="177.000000pt" height="170.000000pt" viewBox="0 0 177.000000 170.000000"
 preserveAspectRatio="xMidYMid meet">

<g transform="translate(0.000000,170.000000) scale(0.100000,-0.100000)"
fill="#000000" stroke="none">
<path d="M199 1271 c-46 -15 -78 -42 -99 -85 -19 -40 -20 -60 -20 -336 0 -273
1 -297 20 -335 23 -48 61 -78 116 -95 28 -8 183 -10 554 -8 463 4 521 6 570
22 84 27 122 58 188 155 69 99 81 126 103 219 42 180 13 324 -81 405 -57 49
-103 58 -290 60 l-164 2 -22 -100 c-13 -55 -32 -144 -43 -197 -42 -200 -64
-293 -70 -303 -3 -5 -8 96 -11 225 -6 265 -11 286 -83 344 l-39 31 -301 2
c-166 1 -314 -2 -328 -6z m1204 -163 c26 -13 47 -69 47 -122 0 -59 -27 -198
-45 -233 -8 -15 -15 -32 -15 -37 0 -28 -65 -107 -104 -125 -40 -20 -59 -21
-408 -21 -300 0 -368 2 -377 14 -6 8 -16 41 -22 75 l-11 61 -78 0 c-80 0 -90
5 -90 47 0 25 166 270 195 289 41 27 65 7 149 -120 100 -151 103 -159 82 -191
-15 -23 -21 -25 -101 -25 l-85 0 0 -38 c0 -32 5 -41 25 -50 31 -14 371 -17
379 -3 4 5 22 5 43 0 21 -5 64 -9 95 -9 45 0 59 4 67 18 5 9 30 118 56 242 32
154 52 229 63 238 18 14 101 8 135 -10z"/>
</g>
</svg>
