<?xml version="1.0" standalone="no"?>
<!DOCTYPE svg PUBLIC "-//W3C//DTD SVG 20010904//EN"
 "http://www.w3.org/TR/2001/REC-SVG-20010904/DTD/svg10.dtd">
<svg version="1.0" xmlns="http://www.w3.org/2000/svg"
 width="309.000000pt" height="95.000000pt" viewBox="0 0 309.000000 95.000000"
 preserveAspectRatio="xMidYMid meet">

<g transform="translate(0.000000,95.000000) scale(0.100000,-0.100000)"
 stroke="none">
<path d="M255 831 c-11 -5 -31 -21 -45 -36 l-25 -27 -3 -240 c-3 -252 0 -279
40 -315 18 -16 48 -18 324 -23 l303 -5 17 75 c9 41 23 105 31 143 l15 67 79 0
c87 0 87 -1 104 78 l7 32 -81 0 c-92 0 -90 -3 -67 95 l11 50 172 3 172 2 6 33
c4 17 9 40 11 50 5 16 -11 17 -234 17 l-240 0 -7 -46 -7 -47 -17 29 c-43 70
-38 69 -305 71 -132 1 -250 -2 -261 -6z m351 -171 l94 0 0 -145 0 -145 -30 0
c-30 0 -30 0 -30 56 0 93 -2 94 -138 94 -79 0 -122 -4 -130 -12 -7 -7 -12 -39
-12 -75 l0 -63 -40 0 -40 0 0 135 0 135 83 0 c58 0 89 4 103 15 10 8 25 12 32
10 8 -3 56 -5 108 -5z m-48 -212 c7 -7 12 -27 12 -45 l0 -34 -72 3 c-73 3 -73
3 -76 33 -3 19 2 33 14 42 22 16 106 17 122 1z"/>
<path d="M1408 833 c-15 -2 -29 -12 -32 -21 -3 -9 -32 -143 -66 -297 -33 -154
-63 -290 -65 -302 l-5 -23 239 0 c265 0 241 -6 256 67 l6 33 -178 2 c-113 2
-177 7 -176 13 1 6 22 116 48 245 25 129 48 247 51 263 5 25 3 27 -23 26 -15
-1 -40 -4 -55 -6z"/>
<path d="M1880 836 c0 -10 -108 -542 -120 -591 -5 -22 -10 -44 -10 -50 0 -6
84 -9 239 -7 l238 3 7 37 c3 20 6 43 6 50 0 9 -41 12 -171 12 l-171 0 6 23 c4
12 14 52 22 90 l16 67 79 0 78 0 11 43 c6 23 13 48 15 55 3 9 -17 12 -81 12
-84 0 -85 0 -78 23 4 12 12 45 18 72 l11 50 171 3 171 2 10 50 10 50 -132 0
c-72 0 -180 3 -238 7 -59 3 -107 3 -107 -1z"/>
<path d="M2396 813 c-2 -10 -7 -33 -11 -50 l-7 -33 66 0 c35 0 67 3 69 8 3 4
8 26 12 50 l7 42 -65 0 c-54 0 -67 -3 -71 -17z"/>
<path d="M2563 780 l-10 -50 148 0 147 0 7 33 c4 17 9 40 11 50 5 16 -7 17
-144 17 l-149 0 -10 -50z"/>
<path d="M1116 453 c-26 -126 -50 -237 -52 -248 -5 -19 -1 -20 64 -17 l68 3
22 112 c13 62 35 172 51 245 l29 132 -68 0 -67 0 -47 -227z"/>
<path d="M2365 668 c-2 -7 -26 -118 -53 -245 l-49 -233 69 0 c37 0 68 3 68 8
0 4 23 113 50 242 27 129 50 236 50 238 0 1 -29 2 -65 2 -44 0 -67 -4 -70 -12z"/>
<path d="M2620 676 c0 -3 -22 -111 -50 -240 -27 -130 -50 -238 -50 -241 0 -3
29 -5 65 -5 59 0 65 2 70 23 14 61 95 449 95 457 0 6 -29 10 -65 10 -36 0 -65
-2 -65 -4z"/>
</g>
</svg>
